#N canvas 175 132 810 482 10;
#X obj 331 420 dac~ 1 2 3 4 5 6 7 8;
#X obj 146 364 readsf~;
#X obj 221 366 readsf~;
#X obj 351 366 readsf~;
#X obj 292 367 readsf~;
#X obj 412 368 readsf~;
#X obj 472 358 readsf~;
#X obj 579 366 readsf~;
#X obj 362 133 loadbang;
#X obj 647 76 vradio 15 1 0 8 \$0-inch-sel empty empty 0 -8 0 10 -262144
-1 -1 0;
#X obj 668 76 vradio 15 1 0 8 \$0-outch-sel empty empty 0 -8 0 10 -262144
-1 -1 0;
#X text 689 73 1-8;
#X text 690 88 3-10;
#X text 690 103 5-12;
#X text 691 120 7-14;
#X text 690 135 9-16;
#X text 691 150 11-18;
#X text 691 165 17-24;
#X text 655 30 channel assign:, f 7;
#X text 644 197 in;
#X text 667 198 out;
#X text 691 182 25-32;
#X msg 528 127 \; pd dsp 1;
#X msg 427 248 1;
#X msg 206 217 open channel2.wav;
#X msg 108 332 open channel1.wav;
#X msg 238 328 open channel3.wav;
#X msg 347 295 open channel4.wav;
#X msg 380 324 open channel5.wav;
#X msg 498 293 open channel6.wav;
#X msg 519 322 open full_comb.wav;
#X obj 375 208 delay 5000;
#X connect 1 0 0 0;
#X connect 2 0 0 1;
#X connect 3 0 0 3;
#X connect 4 0 0 2;
#X connect 5 0 0 4;
#X connect 6 0 0 5;
#X connect 7 0 0 6;
#X connect 7 0 0 7;
#X connect 8 0 22 0;
#X connect 8 0 24 0;
#X connect 8 0 25 0;
#X connect 8 0 26 0;
#X connect 8 0 27 0;
#X connect 8 0 28 0;
#X connect 8 0 29 0;
#X connect 8 0 30 0;
#X connect 8 0 31 0;
#X connect 23 0 2 0;
#X connect 23 0 1 0;
#X connect 23 0 4 0;
#X connect 23 0 3 0;
#X connect 23 0 5 0;
#X connect 23 0 6 0;
#X connect 23 0 7 0;
#X connect 24 0 2 0;
#X connect 25 0 1 0;
#X connect 26 0 4 0;
#X connect 27 0 3 0;
#X connect 28 0 5 0;
#X connect 29 0 6 0;
#X connect 30 0 7 0;
#X connect 31 0 23 0;
